<?xml version="1.0" encoding="UTF-8"?>
<svg width="109px" height="142px" viewBox="0 0 109 142" version="1.1" xmlns="http://www.w3.org/2000/svg" xmlns:xlink="http://www.w3.org/1999/xlink">
    <!-- Generator: sketchtool 54.1 (76490) - https://sketchapp.com -->
    <title>FABBA42E-6514-45DE-95EC-36A0B64F48A1</title>
    <desc>Created with sketchtool.</desc>
    <defs>
        <linearGradient x1="21.9128762%" y1="-5.83823941%" x2="79.7849431%" y2="100%" id="linearGradient-1">
            <stop stop-color="#011C22" offset="0%"></stop>
            <stop stop-color="#FFFFFF" offset="100%"></stop>
        </linearGradient>
    </defs>
    <g id="Obvious" stroke="none" stroke-width="1" fill="none" fill-rule="evenodd">
        <g id="Main_Placehodler" transform="translate(-342.000000, -610.000000)" fill="url(#linearGradient-1)" fill-rule="nonzero">
            <path id="arrow" d="M450.576605,748.883163 L440.997251,751.963095 L442.365047,743.067639 L450.576605,748.883163 Z M343.928052,610.220829 L344.922549,610.325592 C344.852451,610.991019 344.785271,611.654078 344.72101,612.314769 L343.725707,612.217962 C343.790226,611.554613 343.857675,610.888902 343.928052,610.220829 Z M343.540295,614.208104 L344.536354,614.296791 C344.477285,614.960208 344.421202,615.621203 344.368104,616.279775 L343.371339,616.199409 C343.424661,615.538057 343.480979,614.874289 343.540295,614.208104 Z M343.218508,618.201955 L344.215928,618.273747 C344.168083,618.938464 344.123325,619.600676 344.081654,620.260381 L343.083643,620.197341 C343.125499,619.534712 343.170454,618.869583 343.218508,618.201955 Z M342.965818,622.206508 L343.964359,622.260517 C343.928182,622.929373 343.895228,623.595614 343.865497,624.259238 L342.866499,624.214482 C342.896369,623.547766 342.929475,622.878442 342.965818,622.206508 Z M342.786184,626.218602 L343.785562,626.253892 C343.762009,626.920882 343.741765,627.585186 343.724828,628.246805 L342.725155,628.221214 C342.742175,627.556355 342.762518,626.888818 342.786184,626.218602 Z M342.683847,630.221605 L343.683725,630.237263 C343.673268,630.905049 343.666235,631.570053 343.662629,632.232276 L342.662643,632.226829 C342.666269,631.561195 342.673337,630.892787 342.683847,630.221605 Z M342.662214,634.239294 L343.662201,634.23423 C343.665578,634.900978 343.672487,635.564859 343.682927,636.225871 L342.683052,636.241663 C342.672555,635.577068 342.665609,634.909612 342.662214,634.239294 Z M342.725593,638.24174 L343.725235,638.214956 C343.743128,638.882792 343.764691,639.547647 343.789922,640.209522 L342.790648,640.247615 C342.765273,639.581963 342.743588,638.913338 342.725593,638.24174 Z M342.878642,642.251722 L343.877407,642.202037 C343.910581,642.868887 343.947547,643.532657 343.988305,644.193345 L342.990202,644.254918 C342.949199,643.59026 342.912013,642.922528 342.878642,642.251722 Z M343.12654,646.265107 L344.123812,646.191293 C344.173202,646.858587 344.226535,647.522678 344.283809,648.183566 L343.287544,648.269905 C343.229907,647.604835 343.176239,646.936569 343.12654,646.265107 Z M343.473347,650.265415 L344.468422,650.166284 C344.534723,650.831818 344.605102,651.494039 344.679557,652.152947 L343.68588,652.26523 C343.61093,651.601932 343.540085,650.935327 343.473347,650.265415 Z M343.925067,654.261102 L344.91713,654.135354 C345.000981,654.796883 345.089026,655.455003 345.181264,656.109715 L344.191042,656.249221 C344.098158,655.589917 344.009499,654.927211 343.925067,654.261102 Z M344.487174,658.247798 L345.475294,658.094108 C345.577693,658.752466 345.684423,659.407302 345.795483,660.058619 L344.809712,660.22671 C344.697832,659.570588 344.590319,658.910951 344.487174,658.247798 Z M345.158815,662.186468 L346.141982,662.003759 C346.263878,662.659688 346.390263,663.311969 346.521136,663.960602 L345.54089,664.158384 C345.409003,663.504725 345.281644,662.847419 345.158815,662.186468 Z M345.952655,666.119954 L346.929676,665.90681 C347.071646,666.557582 347.218238,667.204597 347.369452,667.847855 L346.395987,668.076692 C346.243543,667.428202 346.095766,666.775956 345.952655,666.119954 Z M346.872614,670.031876 L347.842165,669.786985 C348.005245,670.43264 348.173093,671.074418 348.345708,671.712321 L347.380425,671.973526 C347.206338,671.330186 347.037068,670.68297 346.872614,670.031876 Z M347.924545,673.91754 L348.885152,673.639629 C349.070379,674.279872 349.260528,674.916113 349.455601,675.548352 L348.50005,675.843179 C348.303239,675.205306 348.111404,674.563426 347.924545,673.91754 Z M349.110956,677.761675 L350.061024,677.44963 C350.268603,678.081634 350.481228,678.709537 350.698901,679.333338 L349.754733,679.662801 C349.535037,679.033202 349.320445,678.399493 349.110956,677.761675 Z M350.436884,681.560216 L351.374676,681.213018 C351.605419,681.836261 351.841335,682.455299 352.082426,683.070133 L351.151443,683.435194 C350.908022,682.814418 350.669836,682.189425 350.436884,681.560216 Z M351.911554,685.318967 L352.835161,684.935627 C353.089824,685.549204 353.349787,686.158477 353.615049,686.763445 L352.699219,687.165012 C352.431301,686.553985 352.168745,685.938637 351.911554,685.318967 Z M353.527755,689.003902 L354.435268,688.583879 C354.714389,689.186956 354.998931,689.785631 355.288895,690.379905 L354.390171,690.818419 C354.097211,690.218004 353.809739,689.613165 353.527755,689.003902 Z M355.298261,692.631185 L356.187598,692.173931 C356.491619,692.765238 356.801173,693.352055 357.116259,693.934382 L356.236752,694.410268 C355.91832,693.821758 355.60549,693.22873 355.298261,692.631185 Z M357.217985,696.17829 L358.087093,695.683668 C358.415259,696.260295 358.749024,696.832381 359.088388,697.399926 L358.23012,697.913128 C357.887073,697.339423 357.549695,696.761143 357.217985,696.17829 Z M359.25139,699.58087 L360.098621,699.049645 C360.451698,699.612755 360.810463,700.171254 361.174917,700.725142 L360.339537,701.274815 C359.971063,700.714817 359.608347,700.150168 359.25139,699.58087 Z M361.464781,702.944549 L362.287827,702.376573 C362.664664,702.922642 363.047222,703.46408 363.435499,704.000885 L362.625239,704.586955 C362.232631,704.044164 361.845812,703.496695 361.464781,702.944549 Z M363.822973,706.204661 L364.61999,705.600705 C365.020966,706.129858 365.427699,706.654351 365.840188,707.174187 L365.056841,707.795772 C364.639729,707.270111 364.228439,706.73974 363.822973,706.204661 Z M366.326972,709.360227 L367.096237,708.721297 C367.519443,709.230832 367.948385,709.735729 368.383064,710.235987 L367.628213,710.891883 C367.188667,710.386024 366.75492,709.875472 366.326972,709.360227 Z M368.970817,712.402614 L369.710831,711.730022 C370.156012,712.219829 370.606905,712.70502 371.06351,713.185596 L370.338554,713.874391 C369.876872,713.388472 369.42096,712.897879 368.970817,712.402614 Z M371.747098,715.324363 L372.456628,714.619689 C372.92317,715.089446 373.395388,715.554619 373.873282,716.015209 L373.179331,716.735231 C372.696191,716.269585 372.21878,715.799296 371.747098,715.324363 Z M374.646967,718.119189 L375.325082,717.384232 C375.81197,717.833465 376.304483,718.27816 376.802618,718.718318 L376.140468,719.467688 C375.636964,719.022787 375.13913,718.573287 374.646967,718.119189 Z M377.668186,720.788759 L378.314183,720.025419 C378.818984,720.452619 379.329309,720.875364 379.845159,721.293655 L379.215327,722.070386 C378.694048,721.647693 378.178334,721.220484 377.668186,720.788759 Z M380.800153,723.328249 L381.413646,722.538548 C381.936352,722.944621 382.464495,723.346311 382.998078,723.743617 L382.400852,724.545691 C381.861812,724.14432 381.328246,723.738506 380.800153,723.328249 Z M384.030891,725.733972 L384.611807,724.920009 C385.149935,725.304064 385.693378,725.683838 386.242135,726.05933 L385.677424,726.884619 C385.123236,726.50541 384.574391,726.121862 384.030891,725.733972 Z M387.356145,728.009304 L387.904622,727.173138 C388.457787,727.535983 389.016151,727.894641 389.579713,728.249113 L389.047291,729.095592 C388.478353,728.737739 387.914637,728.375643 387.356145,728.009304 Z M390.762317,730.151926 L391.278768,729.295609 C391.844872,729.637031 392.416034,729.974379 392.992256,730.307653 L392.491588,731.173293 C391.910086,730.836964 391.333662,730.496508 390.762317,730.151926 Z M394.253997,732.171378 L394.738911,731.296817 C395.317315,731.617522 395.900642,731.934263 396.488892,732.24704 L396.019422,733.129988 C395.426008,732.814466 394.837533,732.494929 394.253997,732.171378 Z M397.806987,734.060696 L398.261162,733.169783 C398.850015,733.469972 399.443643,733.766318 400.042044,734.058821 L399.602893,734.957234 C398.999472,734.662278 398.400837,734.363432 397.806987,734.060696 Z M401.425709,735.829591 L401.849961,734.924047 C402.448701,735.204559 403.052072,735.481344 403.660075,735.754401 L403.250389,736.666628 C402.637523,736.391387 402.029297,736.112374 401.425709,735.829591 Z M405.105265,737.482055 L405.500496,736.563473 C406.108276,736.824978 406.720547,737.082868 407.337307,737.337144 L406.956152,738.261655 C406.334695,738.005443 405.717732,737.745576 405.105265,737.482055 Z M408.829822,739.017676 L409.197074,738.087554 C409.812056,738.330376 410.431376,738.569705 411.055032,738.805543 L410.701325,739.740899 C410.07315,739.503353 409.449316,739.262278 408.829822,739.017676 Z M412.593715,740.441088 L412.934067,739.50079 C413.556197,739.725977 414.182525,739.947784 414.813053,740.16621 L414.485719,741.111119 C413.850851,740.891189 413.220183,740.667846 412.593715,740.441088 Z M416.403012,741.760696 L416.717485,740.81143 C417.345472,741.019469 417.977515,741.224242 418.613614,741.425748 L418.31162,742.379058 C417.671361,742.176234 417.035159,741.970113 416.403012,741.760696 Z M420.229311,742.973024 L420.519083,742.015928 C421.152258,742.20763 421.789352,742.396175 422.430366,742.581564 L422.15254,743.542195 C421.507545,743.355655 420.866469,743.165931 420.229311,742.973024 Z M423.94431,744.049416 L424.211278,743.08571 C424.84913,743.26241 425.490777,743.436053 426.136218,743.60664 L425.880697,744.573443 C425.231442,744.401849 424.58598,744.227173 423.94431,744.049416 Z M427.820673,745.074155 L428.065015,744.104466 C428.706905,744.26621 429.352461,744.424999 430.001683,744.580835 L429.768279,745.553215 C429.115413,745.396505 428.466211,745.236818 427.820673,745.074155 Z M431.723021,746.011024 L431.945724,745.036138 C432.591084,745.183563 433.239987,745.328134 433.892434,745.46985 L433.680176,746.447064 C433.024251,746.304592 432.371866,746.159246 431.723021,746.011024 Z M435.647129,746.863493 L435.849153,745.884112 C436.497645,746.017881 437.149563,746.148889 437.804907,746.277137 L437.612855,747.258522 C436.954191,747.129624 436.298949,746.997948 435.647129,746.863493 Z M439.58884,747.634972 L439.771118,746.651725 C440.422324,746.772448 441.076844,746.890501 441.734676,747.005883 L441.561916,747.990847 C440.900915,747.874909 440.243223,747.756284 439.58884,747.634972 Z"></path>
        </g>
    </g>
</svg>