<?xml version="1.0" encoding="UTF-8"?>
<svg width="96px" height="89px" viewBox="0 0 96 89" version="1.1" xmlns="http://www.w3.org/2000/svg" xmlns:xlink="http://www.w3.org/1999/xlink">
    <!-- Generator: sketchtool 54.1 (76490) - https://sketchapp.com -->
    <title>A1105304-C9CE-415E-A05A-EDA3DBA220F8</title>
    <desc>Created with sketchtool.</desc>
    <defs>
        <path d="M87.2666667,30.295858 C87.2666667,31.8422168 86.8676569,33.2544315 86.0696252,34.5325444 C85.2715936,35.8106573 84.0589167,36.8599564 82.4315582,37.6804734 C80.8041996,38.5009903 78.7856794,38.9585794 76.3759369,39.0532544 L76.3759369,44.4970414 L74.6390533,44.4970414 L74.6390533,39.0532544 C72.3544922,38.9585794 70.2029687,38.5009903 68.1844181,37.6804734 C66.1658676,36.8599564 64.5932995,35.8185467 63.4666667,34.556213 L64.5463511,32.7573964 C65.6416886,33.8934968 67.0969009,34.8481224 68.9120316,35.6213018 C70.7271623,36.3944812 72.6361504,36.8284019 74.6390533,36.9230769 L74.6390533,23.1952663 C72.4796736,22.6587744 70.695865,22.0907328 69.287574,21.4911243 C67.8792829,20.8915157 66.7057246,20.0078954 65.7668639,18.8402367 C64.8280032,17.672578 64.3585799,16.1420213 64.3585799,14.2485207 C64.3585799,11.881645 65.227013,9.87772024 66.9639053,8.23668639 C68.7007976,6.59565254 71.2591547,5.68047432 74.6390533,5.49112426 L74.6390533,-1.20792265e-13 L76.3759369,-1.20792265e-13 L76.3759369,5.44378698 C78.1597722,5.50690367 79.8888148,5.79881396 81.5631164,6.31952663 C83.237418,6.84023929 84.6848065,7.54240189 85.9053254,8.4260355 L85.0134122,10.3668639 C83.7303026,9.4832303 82.3376801,8.81262556 80.835503,8.35502959 C79.3333258,7.89743361 77.8468187,7.63708118 76.3759369,7.5739645 L76.3759369,21.3017751 C78.754384,21.9013837 80.6633722,22.4852043 82.1029586,23.0532544 C83.542545,23.6213046 84.7630456,24.4812566 85.764497,25.6331361 C86.7659485,26.7850156 87.2666667,28.3392407 87.2666667,30.295858 Z M66.7526627,14.2011834 C66.7526627,16.1262424 67.4255028,17.554236 68.7712032,18.4852071 C70.1169035,19.4161782 72.072834,20.2130144 74.6390533,20.8757396 L74.6390533,7.62130178 C72.0415386,7.81065183 70.0777844,8.51281444 68.7477318,9.72781065 C67.4176791,10.9428069 66.7526627,12.4339162 66.7526627,14.2011834 Z M76.3759369,36.9230769 C79.192519,36.7968436 81.3127476,36.1341283 82.7366864,34.9349112 C84.1606251,33.7356942 84.8725838,32.2366954 84.8725838,30.4378698 C84.8725838,29.0493027 84.4970452,27.9211089 83.7459566,27.0532544 C82.994868,26.1854 82.040374,25.5147953 80.8824458,25.0414201 C79.7245176,24.568045 78.2223629,24.0946769 76.3759369,23.6213018 L76.3759369,36.9230769 Z" id="path-1"></path>
        <filter x="-50.4%" y="-27.0%" width="200.8%" height="153.9%" filterUnits="objectBoundingBox" id="filter-2">
            <feOffset dx="0" dy="0" in="SourceAlpha" result="shadowOffsetOuter1"></feOffset>
            <feGaussianBlur stdDeviation="4" in="shadowOffsetOuter1" result="shadowBlurOuter1"></feGaussianBlur>
            <feColorMatrix values="0 0 0 0 0   0 0 0 0 0.623529412   0 0 0 0 0.756862745  0 0 0 1 0" type="matrix" in="shadowBlurOuter1"></feColorMatrix>
        </filter>
    </defs>
    <g id="Obvious" stroke="none" stroke-width="1" fill="none" fill-rule="evenodd">
        <g id="Main" transform="translate(-206.000000, -905.000000)">
            <g id="Group-5" transform="translate(0.000000, 586.000000)">
                <g id="Stacked-Group-3" transform="translate(192.000000, 305.000000)">
                    <g id="cost-reduction">
                        <rect id="Rectangle" x="0" y="0" width="119" height="120"></rect>
                        <g id="Group-7" transform="translate(14.875000, 22.000000)" fill-rule="nonzero">
                            <path id="Path-5" d="M87.7298981,80.111292 L78.1973537,76.8893986 L84.5878863,70.5521204 L87.7298981,80.111292 Z M-0.355029586,19.352071 L0.355029586,18.647929 L1.76331361,20.0680473 L1.05325444,20.7721893 L-0.355029586,19.352071 Z M2.46153846,22.1923077 L3.17159763,21.4881657 L4.57988166,22.908284 L3.86982249,23.612426 L2.46153846,22.1923077 Z M5.27810651,25.0325444 L5.98816568,24.3284024 L7.3964497,25.7485207 L6.68639053,26.4526627 L5.27810651,25.0325444 Z M8.09467456,27.8727811 L8.80473373,27.1686391 L10.2130178,28.5887574 L9.50295858,29.2928994 L8.09467456,27.8727811 Z M10.9112426,30.7130178 L11.6213018,30.0088757 L13.0295858,31.4289941 L12.3195266,32.1331361 L10.9112426,30.7130178 Z M13.7278107,33.5532544 L14.4378698,32.8491124 L15.8461538,34.2692308 L15.1360947,34.9733728 L13.7278107,33.5532544 Z M16.5443787,36.3934911 L17.2544379,35.6893491 L18.6627219,37.1094675 L17.9526627,37.8136095 L16.5443787,36.3934911 Z M19.3609467,39.2337278 L20.0710059,38.5295858 L21.4792899,39.9497041 L20.7692308,40.6538462 L19.3609467,39.2337278 Z M22.1775148,42.0739645 L22.887574,41.3698225 L24.295858,42.7899408 L23.5857988,43.4940828 L22.1775148,42.0739645 Z M24.9940828,44.9142012 L25.704142,44.2100592 L27.112426,45.6301775 L26.4023669,46.3343195 L24.9940828,44.9142012 Z M28.5207101,45.6613683 L27.8106509,44.9572263 L29.2189349,43.5371079 L29.9289941,44.2412499 L28.5207101,45.6613683 Z M31.3372781,42.8211316 L30.6272189,42.1169896 L32.035503,40.6968712 L32.7455621,41.4010133 L31.3372781,42.8211316 Z M34.1538462,39.9808949 L33.443787,39.2767529 L34.852071,37.8566346 L35.5621302,38.5607766 L34.1538462,39.9808949 Z M36.9704142,37.1406582 L36.260355,36.4365162 L37.6686391,35.0163979 L38.3786982,35.7205399 L36.9704142,37.1406582 Z M40.8414893,32.8263577 L41.0468298,33.029987 L39.7869822,34.3004215 L39.0769231,33.5962795 L40.6918002,31.967832 L41.1952663,32.4755289 L40.8414893,32.8263577 Z M41.8934911,34.5997892 L42.6035503,33.8956472 L44.0118343,35.3157656 L43.3017751,36.0199076 L41.8934911,34.5997892 Z M44.7100592,37.4400259 L45.4201183,36.7358839 L46.8284024,38.1560022 L46.1183432,38.8601443 L44.7100592,37.4400259 Z M47.5266272,40.2802626 L48.2366864,39.5761206 L49.6449704,40.9962389 L48.9349112,41.7003809 L47.5266272,40.2802626 Z M50.3431953,43.1204993 L51.0532544,42.4163573 L52.4615385,43.8364756 L51.7514793,44.5406176 L50.3431953,43.1204993 Z M53.1597633,45.960736 L53.8698225,45.256594 L55.2781065,46.6767123 L54.5680473,47.3808543 L53.1597633,45.960736 Z M55.9763314,48.8009727 L56.6863905,48.0968306 L58.0946746,49.516949 L57.3846154,50.221091 L55.9763314,48.8009727 Z M58.7928994,51.6412093 L59.5029586,50.9370673 L60.9112426,52.3571857 L60.2011834,53.0613277 L58.7928994,51.6412093 Z M61.6094675,54.481446 L62.3195266,53.777304 L63.7278107,55.1974224 L63.0177515,55.9015644 L61.6094675,54.481446 Z M64.4260355,57.3216827 L65.1360947,56.6175407 L66.5443787,58.0376591 L65.8343195,58.7418011 L64.4260355,57.3216827 Z M67.2426036,60.1619194 L67.9526627,59.4577774 L69.3609467,60.8778957 L68.6508876,61.5820377 L67.2426036,60.1619194 Z M70.0591716,63.0021561 L70.7692308,62.2980141 L72.1775148,63.7181324 L71.4674556,64.4222744 L70.0591716,63.0021561 Z M72.8757396,65.8423928 L73.5857988,65.1382508 L74.9940828,66.5583691 L74.2840237,67.2625111 L72.8757396,65.8423928 Z M75.6923077,68.6826295 L76.4023669,67.9784875 L77.8106509,69.3986058 L77.1005917,70.1027478 L75.6923077,68.6826295 Z M78.5088757,71.5228662 L79.2189349,70.8187241 L80.6272189,72.2388425 L79.9171598,72.9429845 L78.5088757,71.5228662 Z" fill="#FFFFFF"></path>
                            <g id="$">
                                <use fill="black" fill-opacity="1" filter="url(#filter-2)" xlink:href="#path-1"></use>
                                <use fill="#009FC1" xlink:href="#path-1"></use>
                            </g>
                        </g>
                    </g>
                </g>
            </g>
        </g>
    </g>
</svg>