<?xml version="1.0" encoding="UTF-8"?>
<svg width="266px" height="318px" viewBox="0 0 266 318" version="1.1" xmlns="http://www.w3.org/2000/svg" xmlns:xlink="http://www.w3.org/1999/xlink">
    <!-- Generator: sketchtool 54.1 (76490) - https://sketchapp.com -->
    <title>ECFA27A2-E362-4D9C-8F01-DA5D88A26F23</title>
    <desc>Created with sketchtool.</desc>
    <defs>
        <linearGradient x1="74.7571209%" y1="-1.61264011%" x2="62.2668242%" y2="38.2872474%" id="linearGradient-1">
            <stop stop-color="#000000" offset="0%"></stop>
            <stop stop-color="#FFFFFF" offset="100%"></stop>
        </linearGradient>
    </defs>
    <g id="Obvious" stroke="none" stroke-width="1" fill="none" fill-rule="evenodd" opacity="0.600000024" stroke-dasharray="2">
        <g id="Main" transform="translate(-783.000000, -1587.000000)" fill-rule="nonzero" stroke="url(#linearGradient-1)">
            <g id="Group-5" transform="translate(0.000000, 586.000000)">
                <g id="Group-4" transform="translate(744.000000, 986.000000)">
                    <path d="M198.492471,224.316164 L197.322357,225.088138 L196.079433,225.801598 L194.766711,226.45142 L193.387522,227.032636 L191.945514,227.540456 L190.444636,227.970281 L188.889132,228.317726 L187.28353,228.578638 L185.632623,228.749106 L183.941466,228.825483 L182.215353,228.804402 L180.459805,228.682784 L178.680554,228.45786 L176.883528,228.127178 L175.074829,227.688618 L173.260719,227.1404 L171.4476,226.481098 L169.641991,225.709647 L167.850514,224.82535 L166.07987,223.827887 L164.336818,222.717319 L162.628152,221.494095 L160.960687,220.159051 L159.341227,218.713419 L157.77655,217.158821 L156.273383,215.497273 L154.838381,213.731185 L153.478105,211.863353 L152.198998,209.896963 L151.007365,207.835578 L149.909352,205.683137 L148.910922,203.443947 L148.017834,201.122673 L147.235628,198.72433 L146.569595,196.254271 L146.024768,193.718174 L145.605893,191.122032 L145.317419,188.472138 L145.163475,185.775066 L145.147854,183.03766 L145.274,180.267016 L145.544989,177.470461 L145.963515,174.655535 L146.531881,171.829976 L147.25198,169.001691 L148.12529,166.178745 L149.15286,163.369328 L150.335303,160.581743 L151.672786,157.824376 L153.165028,155.105675 L154.811288,152.434126 L156.610367,149.818228 L158.560602,147.26647 L160.659865,144.787305 L162.905563,142.389125 L165.294639,140.080236 L167.823577,137.868834 L170.488401,135.762977 L173.284683,133.770564 L176.20755,131.899309 L179.251692,130.156714 L182.411369,128.55005 L185.680423,127.086328 L189.05229,125.772278 L192.520013,124.614328 L196.076255,123.61858 L199.713315,122.790787 L203.423147,122.136338 L207.197373,121.660231 L211.027308,121.367059 L214.903974,121.260991 L218.818126,121.345754 L222.760269,121.624617 L226.720685,122.100376 L230.689456,122.775343 L234.656486,123.651328 L238.61153,124.729634 L242.544216,126.011039 L246.444074,127.495797 L250.300564,129.183622 L254.103101,131.073687 L257.841084,133.164615 L261.503926,135.454483 L265.081078,137.940811 L268.562064,140.620569 L271.936506,143.490177 L275.194153,146.545502 L278.32491,149.78187 L281.31887,153.194068 L284.166338,156.77635 L286.85786,160.522448 L289.384255,164.425581 L291.736638,168.478467 L293.906448,172.673335 L295.885476,177.001943 L297.665891,181.455589 L299.240262,186.025133 L300.601584,190.701011 L301.743303,195.473258 L302.659335,200.331531 L303.344091,205.265126 L303.792494,210.263006 L304,215.313823 L303.962616,220.405946 L303.676917,225.527487 L303.140058,230.666327 L302.349795,235.810148 L301.304489,240.946459 L300.003125,246.062627 L298.445316,251.145909 L296.631314,256.183483 L294.562017,261.162479 L292.238971,266.070012 L289.664376,270.893213 L286.841088,275.619266 L283.772616,280.235437 L280.463124,284.729108 L276.917424,289.087813 L273.140975,293.299269 L269.139871,297.351407 L264.920839,301.232411 L260.491223,304.930742 L255.858976,308.435179 L251.032644,311.734845 L246.021353,314.819238 L240.834792,317.678264 L235.483191,320.302265 L229.977308,322.68205 L224.328402,324.808917 L218.54821,326.674687 L212.648928,328.271728 L206.643179,329.592974 L200.543992,330.631957 L194.364768,331.382824 L188.119254,331.840358 L181.821513,332 L175.48589,331.857865 L169.12698,331.410758 L162.759595,330.656192 L156.398731,329.592397 L150.059529,328.218334 L143.757242,326.533707 L137.507199,324.538965 L131.324765,322.235314 L125.225307,319.62472 L119.224153,316.709909 L113.336557,313.494372 L107.57766,309.982361 L101.962449,306.178885 L96.5057235,302.089709 L91.2220536,297.721343 L86.1257443,293.081037 L81.2307973,288.176767 L76.550874,283.017226 L72.0992592,277.611803 L67.8888249,271.970577 L63.9319952,266.104289 L60.2407118,260.024327 L56.8264007,253.742706 L53.6999394,247.272038 L50.8716257,240.625516 L48.3511471,233.816878 L46.1475518,226.860387 L44.2692213,219.770794 L42.7238433,212.563313 L41.5183877,205.253585 L40.6590826,197.857643 L40.1513928,190.391882 L40,182.873015 L40.2087841,175.318044 L40.7808069,167.744214 L41.7182978,160.168979 L43.0226404,152.609959 L44.6943625,145.084901 L46.7331265,137.611635 L49.1377235,130.208034 L51.906068,122.891972 L55.0351955,115.681278 L58.5212623,108.593695 L62.3595466,101.646839 L66.5444526,94.8581507 L71.0695166,88.2448561 L75.9274147,81.8239219 L81.1099732,75.6120136 L86.6081809,69.6254523 L92.4122038,63.8801734 L98.5114011,58.3916852 L104.894345,53.1750284 L111.548839,48.2447363 L118.461943,43.6147959 L125.619999,39.2986103 L133.008653,35.308962 L140.612887,31.6579772 L148.41705,28.3570917 L156.404886,25.4170183 L164.559573,22.8477153 L172.863753,20.6583567 L181.299574,18.8573046 L189.848723,17.4520822 L198.492471,16.4493498 C222.258395,15.3943792 242.924646,16.1970309 260.491223,18.8573046" id="SPIRALshape"></path>
                </g>
            </g>
        </g>
    </g>
</svg>