<?xml version="1.0" encoding="UTF-8"?>
<svg width="24px" height="24px" viewBox="0 0 24 24" version="1.1" xmlns="http://www.w3.org/2000/svg" xmlns:xlink="http://www.w3.org/1999/xlink">
    <!-- Generator: sketchtool 54.1 (76490) - https://sketchapp.com -->
    <title>2B40279B-1588-4C5B-827E-8874C2E9FE8A</title>
    <desc>Created with sketchtool.</desc>
    <g id="Symbols" stroke="none" stroke-width="1" fill="none" fill-rule="evenodd">
        <g id="social-/-linkedin" fill="#009FC1">
            <path d="M3,0 L21,0 C22.6568542,-3.04359188e-16 24,1.34314575 24,3 L24,21 C24,22.6568542 22.6568542,24 21,24 L3,24 C1.34314575,24 2.02906125e-16,22.6568542 0,21 L0,3 C-2.02906125e-16,1.34314575 1.34314575,3.04359188e-16 3,0 Z M21,20.3636364 L21,14.1826099 C21,10.7395088 19.0410395,9.14055196 16.5476246,9.14055196 C14.5378645,9.14055196 13.2784572,10.2292257 13.0456256,10.9920308 L13.0456256,9.2474285 L9.10442145,9.2474285 C9.15522107,10.1736918 9.10442145,20.3636364 9.10442145,20.3636364 L13.0456256,20.3636364 L13.0456256,14.3481637 C13.0456256,14.0139126 13.0297507,13.6796614 13.13135,13.4397131 C13.4022813,12.7712109 13.9843603,12.0775612 15.0310442,12.0775612 C16.3994591,12.0775612 17.0217545,13.105462 17.0217545,14.6111638 L17.0217545,20.3636364 L21,20.3636364 Z M5.11876764,7.85698569 C6.4374412,7.85698569 7.25870179,7.00406899 7.25870179,5.92692113 C7.23330198,4.82986489 6.4374412,4 5.14310913,4 C3.84771872,4 3,4.83196051 3,5.93006456 C3,7.00721242 3.82337723,7.85698569 5.09336783,7.85698569 L5.11876764,7.85698569 Z M3.45402164,9.2474285 L3.45402164,20.3636364 L6.96237065,20.3636364 L6.96237065,9.2474285 L3.45402164,9.2474285 Z" id="Combined-Shape"></path>
        </g>
    </g>
</svg>