<?xml version="1.0" encoding="UTF-8"?>
<svg width="164px" height="74px" viewBox="0 0 164 74" version="1.1" xmlns="http://www.w3.org/2000/svg" xmlns:xlink="http://www.w3.org/1999/xlink">
    <!-- Generator: sketchtool 54.1 (76490) - https://sketchapp.com -->
    <title>C5FE3614-4E83-478A-ADAD-40A1FAB9B5B6</title>
    <desc>Created with sketchtool.</desc>
    <g id="Obvious" stroke="none" stroke-width="1" fill="none" fill-rule="evenodd">
        <g id="Main" transform="translate(-949.000000, -2848.000000)">
            <g id="Group-15" transform="translate(0.000000, 2361.000000)">
                <g id="Stacked-Group-Copy-4" transform="translate(169.000000, 446.000000)">
                    <g id="Group" transform="translate(780.000000, 41.000000)">
                        <path d="M40.0936372,52.3874709 C39.6442375,52.3874709 39.2366151,52.2854516 38.8707576,52.0814099 C38.5049002,51.8773682 38.1909013,51.6064317 37.9287515,51.2685922 C37.6666017,50.9307527 37.4635106,50.5444172 37.3194723,50.1095743 C37.1754339,49.6747313 37.1034158,49.2298602 37.1034158,48.7749476 C37.1034158,48.2999653 37.179755,47.8450595 37.3324357,47.4102165 C37.4851163,46.9753736 37.6954092,46.5907106 37.9633205,46.256216 C38.2312319,45.9217215 38.5495518,45.6558023 38.91829,45.4584505 C39.2870282,45.2610987 39.6874489,45.1624242 40.1195639,45.1624242 C40.5632021,45.1624242 40.9679438,45.2677885 41.3338012,45.47852 C41.6996587,45.6892516 42.0122172,45.9652055 42.2714863,46.30639 C42.5307553,46.6475744 42.732406,47.0355823 42.8764443,47.4704253 C43.0204827,47.9052682 43.0925008,48.3467944 43.0925008,48.7950172 C43.0925008,49.2699995 43.017602,49.7232328 42.8678021,50.1547308 C42.7180022,50.5862288 42.5105901,50.9675469 42.2455595,51.2986965 C41.9805289,51.6298462 41.6636493,51.8940929 41.2949111,52.0914447 C40.9261729,52.2887965 40.5257522,52.3874709 40.0936372,52.3874709 Z M38.313332,48.7749476 C38.313332,49.0826826 38.3536621,49.3803783 38.4343236,49.6680436 C38.5149851,49.955709 38.6316544,50.209921 38.784335,50.4306875 C38.9370157,50.6514539 39.1242628,50.8287333 39.3460818,50.9625312 C39.5679009,51.096329 39.8199642,51.1632269 40.1022794,51.1632269 C40.3903561,51.1632269 40.6453002,51.0946566 40.8671193,50.9575138 C41.0889384,50.820371 41.2761854,50.6380742 41.4288661,50.4106179 C41.5815467,50.1831616 41.6967757,49.9272771 41.7745564,49.6429567 C41.8523371,49.3586363 41.8912269,49.0693028 41.8912269,48.7749476 C41.8912269,48.4672126 41.8494564,48.1695169 41.7659141,47.8818515 C41.6823719,47.5941862 41.5642622,47.3399741 41.4115816,47.1192077 C41.2589009,46.8984413 41.0716538,46.7228343 40.8498348,46.5923814 C40.6280157,46.4619285 40.3788331,46.3967031 40.1022794,46.3967031 C39.8142027,46.3967031 39.5578183,46.4652734 39.3331184,46.6024162 C39.1084186,46.739559 38.9211715,46.9201833 38.7713717,47.1442947 C38.6215718,47.3684061 38.5077832,47.6226181 38.4300025,47.9069385 C38.3522217,48.1912589 38.313332,48.4805924 38.313332,48.7749476 Z M48.9519519,50.500931 C48.9519519,50.8019761 48.9000989,51.0662228 48.7963912,51.2936791 C48.6926836,51.5211355 48.5500878,51.7117945 48.3685995,51.865662 C48.1871111,52.0195295 47.9768183,52.1366009 47.7377146,52.2168796 C47.4986109,52.2971583 47.2436669,52.337297 46.9728747,52.337297 L44.0085802,52.337297 L44.0085802,45.2125982 L47.2926383,45.2125982 C47.5058151,45.2125982 47.6988236,45.2661165 47.8716696,45.3731548 C48.0445156,45.480193 48.1914326,45.6190062 48.3124248,45.7895984 C48.433417,45.9601907 48.5270405,46.1541946 48.5932982,46.3716161 C48.6595558,46.5890376 48.6926841,46.8081282 48.6926841,47.0288946 C48.6926841,47.376769 48.6177853,47.7028963 48.4679854,48.0072864 C48.3181855,48.3116764 48.0992505,48.5374569 47.8111738,48.6846345 C48.1626274,48.8050526 48.4406173,49.0207983 48.6451517,49.3318783 C48.8496862,49.6429582 48.9519519,50.0326386 48.9519519,50.500931 Z M47.750678,50.2400265 C47.750678,50.1129186 47.7319533,49.9908299 47.6945033,49.8737568 C47.6570533,49.7566837 47.6066407,49.6546644 47.5432638,49.5676958 C47.4798869,49.4807272 47.4049881,49.4121568 47.3185651,49.3619826 C47.2321421,49.3118084 47.1370782,49.2867217 47.0333706,49.2867217 L45.2012118,49.2867217 L45.2012118,51.1632269 L46.9728747,51.1632269 C47.0823439,51.1632269 47.1846096,51.1398126 47.2796749,51.0929834 C47.3747402,51.0461542 47.4568409,50.9809287 47.5259793,50.8973051 C47.5951177,50.8136814 47.6498514,50.715007 47.6901822,50.6012788 C47.7305129,50.4875507 47.750678,50.3671344 47.750678,50.2400265 Z M45.2012118,46.3967031 L45.2012118,48.1929299 L46.7913873,48.1929299 C46.993041,48.1929299 47.1644441,48.1126524 47.3056017,47.9520951 C47.4467593,47.7915377 47.517337,47.5707745 47.517337,47.2897991 C47.517337,47.0155136 47.4525207,46.7980953 47.3228862,46.6375379 C47.1932517,46.4769805 47.0333715,46.3967031 46.8432409,46.3967031 L45.2012118,46.3967031 Z M49.5741945,50.8822529 C49.654856,50.9491518 49.79025,51.0227395 49.9803806,51.1030182 C50.1705113,51.1832969 50.3894463,51.2234356 50.6371923,51.2234356 C50.8791767,51.2234356 51.0721852,51.1749347 51.2162236,51.0779312 C51.3602619,50.9809278 51.4697294,50.8320799 51.5446294,50.6313832 C51.6195293,50.4306865 51.6685016,50.1814917 51.6915478,49.8837916 C51.7145939,49.5860914 51.7261168,49.2365498 51.7261168,48.8351563 L51.7261168,45.2125982 L52.9187484,45.2125982 L52.9187484,48.8351563 C52.9187484,49.3770375 52.8942623,49.8704096 52.8452892,50.3152874 C52.7963162,50.7601652 52.6926101,51.1398108 52.5341679,51.4542357 C52.3757257,51.7686606 52.1467082,52.012838 51.8471084,52.1867752 C51.5475086,52.3607124 51.1442073,52.4476797 50.6371923,52.4476797 C50.1186542,52.4476797 49.6750227,52.3005043 49.3062845,52.006149 L49.5741945,50.8822529 Z M58.3892979,51.1230878 L58.3892979,52.337297 L54.1286646,52.337297 L54.1286646,45.2125982 L58.3115176,45.2125982 L58.3115176,46.4268074 L55.3212962,46.4268074 L55.3212962,48.142756 L57.9053315,48.142756 L57.9053315,49.2666522 L55.3212962,49.2666522 L55.3212962,51.1230878 L58.3892979,51.1230878 Z M58.8214108,48.7247737 C58.8214108,48.2899307 58.8891078,47.8601116 59.0245039,47.4353035 C59.1599,47.0104954 59.3572295,46.6308498 59.6164986,46.2963552 C59.8757676,45.9618606 60.1926473,45.6909241 60.567147,45.4835374 C60.9416467,45.2761508 61.3679939,45.172459 61.8462012,45.172459 C62.4108316,45.172459 62.8991143,45.3162895 63.311064,45.6039549 C63.7230137,45.8916202 64.0298108,46.2662485 64.2314645,46.727851 L63.3153851,47.4603905 C63.2347236,47.2596937 63.136779,47.0907765 63.0215483,46.9536337 C62.9063177,46.816491 62.7824465,46.7077819 62.6499312,46.6275032 C62.517416,46.5472245 62.3791412,46.4886888 62.2351028,46.4518944 C62.0910645,46.4151 61.949909,46.3967031 61.8116322,46.3967031 C61.5120324,46.3967031 61.2513269,46.4669459 61.0295078,46.6074336 C60.8076887,46.7479213 60.6233224,46.9302181 60.4764033,47.1543295 C60.3294842,47.3784408 60.2185763,47.6326529 60.1436763,47.9169733 C60.0687764,48.2012937 60.031327,48.4839374 60.031327,48.7649128 C60.031327,49.0793377 60.0745378,49.3820508 60.1609609,49.673061 C60.2473839,49.9640713 60.3698146,50.2199558 60.5282568,50.4407222 C60.686699,50.6614887 60.8768268,50.8387681 61.0986459,50.972566 C61.320465,51.1063638 61.5638861,51.1732617 61.8289167,51.1732617 C61.9671935,51.1732617 62.1112297,51.1531923 62.2610296,51.113053 C62.4108295,51.0729136 62.5534253,51.0093606 62.6888214,50.922392 C62.8242175,50.8354234 62.949529,50.7233694 63.0647596,50.5862267 C63.1799903,50.4490839 63.2721735,50.2835116 63.3413119,50.0895047 L64.3178871,50.7417659 C64.219941,51.0093615 64.0802259,51.2451767 63.8987376,51.4492183 C63.7172492,51.65326 63.5127178,51.8255222 63.2851372,51.9660099 C63.0575566,52.1064976 62.8141354,52.2135343 62.5548664,52.2871231 C62.2955974,52.3607119 62.0420936,52.3975057 61.7943477,52.3975057 C61.3564711,52.3975057 60.9560504,52.2904691 60.5930738,52.0763925 C60.2300971,51.862316 59.9175386,51.5830172 59.6553888,51.2384878 C59.3932389,50.8939584 59.1887075,50.5026056 59.0417884,50.0644177 C58.8948693,49.6262298 58.8214108,49.1796863 58.8214108,48.7247737 Z M69.6501604,46.4268074 L67.6883678,46.4268074 L67.6883678,52.337297 L66.5043784,52.337297 L66.5043784,46.4268074 L64.5425858,46.4268074 L64.5425858,45.2125982 L69.6501604,45.2125982 L69.6501604,46.4268074 Z M74.0663544,47.0790686 C74.0260237,47.0322393 73.9525652,46.9686863 73.8459768,46.8884076 C73.7393884,46.8081289 73.6097559,46.7295239 73.4570752,46.6525901 C73.3043945,46.5756564 73.1387529,46.5104309 72.9601454,46.4569118 C72.7815378,46.4033926 72.6000522,46.3766335 72.4156831,46.3766335 C72.0872756,46.3766335 71.8424141,46.4468763 71.6810911,46.587364 C71.5197682,46.7278517 71.4391079,46.9252006 71.4391079,47.1794164 C71.4391079,47.3265941 71.4693555,47.4486827 71.5298516,47.5456862 C71.5903477,47.6426896 71.6782098,47.7279844 71.7934405,47.8015732 C71.9086712,47.8751621 72.0541477,47.94206 72.2298745,48.002269 C72.4056013,48.062478 72.6086924,48.126031 72.8391537,48.1929299 C73.1387535,48.2865884 73.4109819,48.3869353 73.6558471,48.4939736 C73.9007124,48.6010118 74.1081245,48.7348076 74.2780897,48.895365 C74.448055,49.0559224 74.5791279,49.2482539 74.6713125,49.4723653 C74.763497,49.6964767 74.8095886,49.9724305 74.8095886,50.3002352 C74.8095886,50.681559 74.7476531,51.0076864 74.6237801,51.278627 C74.4999071,51.5495676 74.3328251,51.7686582 74.1225291,51.9359055 C73.9122331,52.1031528 73.6702523,52.2252415 73.3965794,52.3021752 C73.1229065,52.379109 72.8362745,52.4175753 72.5366747,52.4175753 C72.075752,52.4175753 71.6205976,52.3372978 71.1711979,52.1767404 C70.7217982,52.016183 70.3184969,51.7887301 69.9612817,51.4943749 L70.4884595,50.3002352 C70.5403133,50.3604442 70.6339368,50.4390493 70.7693329,50.5360527 C70.9047289,50.6330561 71.0646091,50.7300581 71.2489782,50.8270615 C71.4333473,50.924065 71.6378787,51.0060149 71.8625786,51.0729138 C72.0872784,51.1398127 72.3177363,51.1732617 72.5539592,51.1732617 C73.2107741,51.1732617 73.5391767,50.9290843 73.5391767,50.4407222 C73.5391767,50.2868547 73.5017272,50.1564038 73.4268273,50.0493655 C73.3519274,49.9423273 73.2453406,49.8486702 73.1070637,49.7683915 C72.9687869,49.6881128 72.8017049,49.6145251 72.6058128,49.5476262 C72.4099206,49.4807273 72.1909856,49.4071396 71.9490011,49.3268609 C71.6551629,49.2332024 71.4002188,49.1311831 71.1841613,49.0207999 C70.9681037,48.9104167 70.7880585,48.7799657 70.6440201,48.6294432 C70.4999818,48.4789206 70.3919546,48.304986 70.3199355,48.1076342 C70.2479163,47.9102825 70.2119072,47.6744673 70.2119072,47.4001818 C70.2119072,47.0389276 70.2695217,46.7178176 70.3847524,46.4368422 C70.4999831,46.1558668 70.6598633,45.9217241 70.8643977,45.7344071 C71.0689322,45.5470901 71.3065919,45.4049321 71.577384,45.3079287 C71.8481761,45.2109252 72.1391293,45.1624242 72.4502521,45.1624242 C72.8823672,45.1624242 73.2799071,45.2410293 73.6428838,45.3982417 C74.0058604,45.5554542 74.3227401,45.7410959 74.5935322,45.9551724 L74.0663544,47.0790686 Z" id="OBJECTS" fill="#073D5B"></path>
                        <g id="Group-3" transform="translate(69.643836, 0.000000)">
                            <path d="M11.6938328,43.8824774 C4.69861557,39.7972462 0,32.2190468 0,23.5454545 C0,10.5416591 10.5611734,0 23.5890411,0 C28.3617431,0 32.8033922,1.41478654 36.516008,3.84711445 C39.8848169,2.80415781 43.4657282,2.24242424 47.1780822,2.24242424 C50.8904362,2.24242424 54.4713474,2.80415781 57.8401564,3.84711445 C61.5527722,1.41478654 65.9944213,0 70.7671233,0 C83.7949909,0 94.3561644,10.5416591 94.3561644,23.5454545 C94.3561644,32.2190468 89.6575488,39.7972462 82.6623316,43.8824774 C79.9009284,60.9588265 65.0652892,74 47.1780822,74 C29.2908752,74 14.455236,60.9588265 11.6938357,43.8824791 Z M70.7671233,39.2424242 C79.4523684,39.2424242 86.4931507,32.2146515 86.4931507,23.5454545 C86.4931507,14.8762576 79.4523684,7.84848485 70.7671233,7.84848485 C62.0818782,7.84848485 55.0410959,14.8762576 55.0410959,23.5454545 C55.0410959,32.2146515 62.0818782,39.2424242 70.7671233,39.2424242 Z M23.5890411,39.2424242 C32.2742862,39.2424242 39.3150685,32.2146515 39.3150685,23.5454545 C39.3150685,14.8762576 32.2742862,7.84848485 23.5890411,7.84848485 C14.903796,7.84848485 7.8630137,14.8762576 7.8630137,23.5454545 C7.8630137,32.2146515 14.903796,39.2424242 23.5890411,39.2424242 Z M23.5998802,47.9808334 C26.7523259,58.2321029 36.2703643,65.3637585 47.1780822,65.3637585 C58.2065405,65.3637585 67.803908,58.0743623 70.8514189,47.6638345 C71.199406,46.4750843 70.5160488,45.2298338 69.325098,44.8824897 C68.1341472,44.5351456 66.8865916,45.2172401 66.5386045,46.4059903 C64.0472863,54.9165217 56.1970845,60.87891 47.1780822,60.87891 C38.2577063,60.87891 30.472478,55.0456107 27.8952353,46.664813 C27.5311536,45.4808751 26.274459,44.815705 25.0883295,45.179114 C23.9021999,45.542523 23.2357985,46.7968955 23.5998802,47.9808334 Z" id="Combined-Shape" fill="#FFCC00"></path>
                            <path d="M18.1236987,22.9831283 C18.5005534,23.0700808 18.8931307,23.116037 19.2964615,23.116037 C22.0956828,23.116037 24.3769373,20.902455 24.4791152,18.1333314 C27.0900258,18.5578823 29.0829156,20.8193662 29.0829156,23.5454545 C29.0829156,26.5740313 26.6232242,29.0291778 23.5890411,29.0291778 C20.554858,29.0291778 18.0951666,26.5740313 18.0951666,23.5454545 C18.0951666,23.3556046 18.1048321,23.1680081 18.1236987,22.9831283 Z" id="Combined-Shape" fill="#073D5B"></path>
                            <path d="M65.3017809,22.9831283 C65.6786356,23.0700808 66.0712129,23.116037 66.4745437,23.116037 C69.273765,23.116037 71.5550195,20.902455 71.6571974,18.1333314 C74.2681079,18.5578823 76.2609978,20.8193662 76.2609978,23.5454545 C76.2609978,26.5740313 73.8013064,29.0291778 70.7671233,29.0291778 C67.7329402,29.0291778 65.2732488,26.5740313 65.2732488,23.5454545 C65.2732488,23.3556046 65.2829142,23.1680081 65.3017809,22.9831283 Z" id="Combined-Shape-Copy" fill="#073D5B"></path>
                        </g>
                        <ellipse id="Oval" stroke="#FFCC00" stroke-width="3" cx="17.9726027" cy="26.9090909" rx="16.4726027" ry="16.4393939"></ellipse>
                        <path d="M29.6852334,39.6434751 L29.702602,61.3215544 L33.4392118,61.3245455 L33.4218432,39.6464661 L29.6852334,39.6434751 Z" id="Rectangle-3" stroke="#FFCC00" stroke-width="3" transform="translate(31.562223, 50.484010) rotate(-30.000000) translate(-31.562223, -50.484010) "></path>
                        <rect id="Rectangle" stroke="#FFCC00" stroke-width="3" x="41.9383562" y="21.6818182" width="1.49315068" height="19.4242424" rx="0.746575342"></rect>
                        <ellipse id="Oval-2" fill="#FFCC00" cx="42.6849315" cy="15.6969697" rx="2.24657534" ry="2.24242424"></ellipse>
                        <rect id="Rectangle-4" fill="#FFCC00" x="49.4246575" y="11.2121212" width="4.49315068" height="31.3939394" rx="2.24657534"></rect>
                        <path d="M55.6681266,18.4005299 L58.1593241,18.3985772 C58.7116087,18.3981443 59.1596747,18.8455085 59.1601076,19.3977931 C59.1601081,19.3983159 59.1601081,19.3988387 59.1601076,19.3993615 L59.148397,34.3249861 C59.1479642,34.8766582 58.7008533,35.3237687 58.1491812,35.3242012 L55.6579837,35.3261538 C55.1056991,35.3265867 54.6576331,34.8792225 54.6572002,34.326938 C54.6571997,34.3264152 54.6571997,34.3258923 54.6572002,34.3253695 L54.6689108,19.399745 C54.6693436,18.8480728 55.1164545,18.4009623 55.6681266,18.4005299 Z" id="Rectangle-4" fill="#FFCC00" transform="translate(56.908654, 26.862366) rotate(29.000000) translate(-56.908654, -26.862366) "></path>
                        <path d="M55.7931911,26.8080744 L58.2834711,26.8102639 C58.8350688,26.8107489 59.2821062,27.2577861 59.2825915,27.8093838 L59.2957249,42.7384671 C59.2962107,43.2907516 58.8488895,43.7388606 58.296605,43.7393464 C58.2960187,43.7393469 58.2954324,43.7393469 58.294846,43.7393464 L55.804566,43.7371569 C55.2529683,43.736672 54.8059309,43.2896348 54.8054456,42.738037 L54.7923122,27.8089538 C54.7918264,27.2566692 55.2391476,26.8085603 55.7914321,26.8080744 C55.7920184,26.8080739 55.7926047,26.8080739 55.7931911,26.8080744 Z" id="Rectangle-4" fill="#FFCC00" transform="translate(57.044019, 35.273710) rotate(-36.000000) translate(-57.044019, -35.273710) "></path>
                    </g>
                </g>
            </g>
        </g>
    </g>
</svg>