<?xml version="1.0" encoding="UTF-8"?>
<svg width="180px" height="84px" viewBox="0 0 180 84" version="1.1" xmlns="http://www.w3.org/2000/svg" xmlns:xlink="http://www.w3.org/1999/xlink">
    <!-- Generator: sketchtool 54.1 (76490) - https://sketchapp.com -->
    <title>08458BA7-A66A-4D01-AAEE-CE5ADD64F3C0</title>
    <desc>Created with sketchtool.</desc>
    <g id="Obvious" stroke="none" stroke-width="1" fill="none" fill-rule="evenodd">
        <g id="Main" transform="translate(-192.000000, -80.000000)">
            <g id="Group-2">
                <g id="logo" transform="translate(192.000000, 80.000000)">
                    <path d="M90.4856834,80.0256378 C89.2343878,80.0256378 88.1052595,79.7480261 87.0982645,79.1927944 C86.0912695,78.6375626 85.3017734,77.8733842 84.7297525,76.9002361 C84.1577317,75.927088 83.8717256,74.8315665 83.8717256,73.6136388 C83.8717256,72.3957111 84.1577317,71.3001897 84.7297525,70.3270416 C85.3017734,69.3538935 86.0942487,68.589715 87.1072022,68.0344833 C88.1201558,67.4792515 89.2522634,67.2016398 90.503559,67.2016398 C91.4807612,67.2016398 92.3745304,67.3658188 93.1848932,67.6941816 C93.9952561,68.0225445 94.6864375,68.5091112 95.2584584,69.1538965 L94.0965468,70.282265 C93.1550959,69.2912062 91.9812791,68.7956843 90.5750612,68.7956843 C89.6455274,68.7956843 88.8053844,69.0046393 88.054607,69.4225557 C87.3038297,69.840472 86.7169213,70.416591 86.2938642,71.1509297 C85.8708071,71.8852685 85.6592818,72.7061633 85.6592818,73.6136388 C85.6592818,74.5211144 85.8708071,75.3420092 86.2938642,76.0763479 C86.7169213,76.8106867 87.3038297,77.3868056 88.054607,77.804722 C88.8053844,78.2226383 89.6455274,78.4315934 90.5750612,78.4315934 C91.969362,78.4315934 93.1431788,77.9301013 94.0965468,76.927102 L95.2584584,78.0554705 C94.6864375,78.7002558 93.9922768,79.1898076 93.1759554,79.5241407 C92.359634,79.8584738 91.4628857,80.0256378 90.4856834,80.0256378 Z M101.05014,79.9898166 C100.108689,79.9898166 99.2625879,79.7808616 98.5118106,79.3629452 C97.7610332,78.9450288 97.1741248,78.3689099 96.7510678,77.6345712 C96.3280107,76.9002324 96.1164853,76.0673973 96.1164853,75.1360408 C96.1164853,74.2046844 96.3280107,73.3718492 96.7510678,72.6375105 C97.1741248,71.9031717 97.7610332,71.3300379 98.5118106,70.9180918 C99.2625879,70.5061456 100.108689,70.3001756 101.05014,70.3001756 C101.991591,70.3001756 102.834714,70.5061456 103.579532,70.9180918 C104.324351,71.3300379 104.90828,71.9031717 105.331337,72.6375105 C105.754394,73.3718492 105.96592,74.2046844 105.96592,75.1360408 C105.96592,76.0673973 105.754394,76.9002324 105.331337,77.6345712 C104.90828,78.3689099 104.324351,78.9450288 103.579532,79.3629452 C102.834714,79.7808616 101.991591,79.9898166 101.05014,79.9898166 Z M101.05014,78.4853252 C101.657912,78.4853252 102.203112,78.3450268 102.685754,78.0644258 C103.168397,77.7838249 103.546759,77.3897953 103.820852,76.8823255 C104.094946,76.3748556 104.23199,75.7927665 104.23199,75.1360408 C104.23199,74.4793151 104.094946,73.897226 103.820852,73.3897562 C103.546759,72.8822863 103.168397,72.4912419 102.685754,72.2166111 C102.203112,71.9419804 101.657912,71.804667 101.05014,71.804667 C100.442368,71.804667 99.897169,71.9419804 99.4145264,72.2166111 C98.9318839,72.4912419 98.5505424,72.8822863 98.2704905,73.3897562 C97.9904386,73.897226 97.8504148,74.4793151 97.8504148,75.1360408 C97.8504148,75.7927665 97.9904386,76.3748556 98.2704905,76.8823255 C98.5505424,77.3897953 98.9318839,77.7838249 99.4145264,78.0644258 C99.897169,78.3450268 100.442368,78.4853252 101.05014,78.4853252 Z M113.223398,70.3001756 C114.427025,70.3001756 115.383358,70.6494291 116.092425,71.3479464 C116.801493,72.0464638 117.156021,73.0703435 117.156021,74.4196164 L117.156021,79.8823529 L115.439967,79.8823529 L115.439967,74.6166331 C115.439967,73.6972171 115.219504,73.0046804 114.778572,72.5390021 C114.337639,72.0733239 113.706042,71.8404883 112.883762,71.8404883 C111.954228,71.8404883 111.221338,72.1121298 110.685068,72.6554211 C110.148799,73.1987124 109.880668,73.9778162 109.880668,74.9927559 L109.880668,79.8823529 L108.164614,79.8823529 L108.164614,70.3897287 L109.809166,70.3897287 L109.809166,71.8225776 C110.154761,71.3330185 110.622501,70.9568994 111.212397,70.6942091 C111.802294,70.4315188 112.47262,70.3001756 113.223398,70.3001756 Z M122.876201,79.9898166 C122.10159,79.9898166 121.356782,79.8853391 120.641756,79.6763809 C119.92673,79.4674227 119.366635,79.2017513 118.961453,78.8793587 L119.676476,77.5181522 C120.093574,77.8166639 120.600043,78.0554696 121.195898,78.2345767 C121.791753,78.4136837 122.393558,78.5032358 123.00133,78.5032358 C124.502885,78.5032358 125.253651,78.0733855 125.253651,77.2136718 C125.253651,76.9271006 125.152357,76.7002351 124.949766,76.5330685 C124.747176,76.365902 124.493941,76.243514 124.190055,76.165901 C123.886169,76.088288 123.45418,76.0017209 122.894077,75.9061971 C122.131382,75.7867925 121.508723,75.6494791 121.02608,75.4942531 C120.543438,75.339027 120.129325,75.0763406 119.783729,74.7061861 C119.438133,74.3360316 119.265338,73.8166291 119.265338,73.1479629 C119.265338,72.2882493 119.622845,71.5986976 120.337871,71.0792873 C121.052897,70.5598769 122.01221,70.3001756 123.215837,70.3001756 C123.847443,70.3001756 124.47904,70.3777875 125.110646,70.5330136 C125.742253,70.6882397 126.260639,70.8971947 126.66582,71.159885 L125.932922,72.5210915 C125.158311,72.0195919 124.246666,71.7688458 123.197961,71.7688458 C122.471018,71.7688458 121.916881,71.8882487 121.535534,72.127058 C121.154187,72.3658674 120.963516,72.682285 120.963516,73.0763205 C120.963516,73.3867726 121.070768,73.6315485 121.285276,73.8106556 C121.499784,73.9897626 121.764935,74.1211057 122.080739,74.204689 C122.396542,74.2882723 122.840447,74.3837946 123.412468,74.4912588 C124.175162,74.6226039 124.791863,74.7629023 125.262589,74.9121582 C125.733314,75.061414 126.13551,75.3151452 126.469189,75.6733592 C126.802868,76.0315732 126.969705,76.5330653 126.969705,77.1778506 C126.969705,78.0375642 126.603259,78.7211457 125.870358,79.2286156 C125.137456,79.7360855 124.139414,79.9898166 122.876201,79.9898166 Z M137.766544,70.3897287 L137.766544,79.8823529 L136.139868,79.8823529 L136.139868,78.449504 C135.794272,78.9390632 135.33845,79.3181673 134.772387,79.5868278 C134.206325,79.8554884 133.589624,79.9898166 132.922267,79.9898166 C131.659054,79.9898166 130.663991,79.6405632 129.937048,78.9420458 C129.210105,78.2435285 128.846639,77.2136786 128.846639,75.8524653 L128.846639,70.3897287 L130.562693,70.3897287 L130.562693,75.6554486 C130.562693,76.5748646 130.783156,77.2703864 131.224088,77.7420348 C131.665021,78.2136833 132.296618,78.449504 133.118898,78.449504 C134.024598,78.449504 134.739613,78.1748774 135.263965,77.6256159 C135.788318,77.0763544 136.05049,76.3002356 136.05049,75.2972363 L136.05049,70.3897287 L137.766544,70.3897287 Z M140.859016,66.592679 L142.57507,66.592679 L142.57507,79.8823529 L140.859016,79.8823529 L140.859016,66.592679 Z M151.226842,79.327124 C150.976583,79.5420524 150.666743,79.7062314 150.297313,79.8196658 C149.927883,79.9331002 149.546541,79.9898166 149.153277,79.9898166 C148.199909,79.9898166 147.46106,79.7331004 146.936707,79.2196603 C146.412355,78.7062202 146.150182,77.9718925 146.150182,77.0166551 L146.150182,71.804667 L144.541382,71.804667 L144.541382,70.3897287 L146.150182,70.3897287 L146.150182,68.3120977 L147.866236,68.3120977 L147.866236,70.3897287 L150.583322,70.3897287 L150.583322,71.804667 L147.866236,71.804667 L147.866236,76.9450126 C147.866236,77.4584527 147.994343,77.8524822 148.250561,78.127113 C148.506779,78.4017437 148.873224,78.5390571 149.349908,78.5390571 C149.87426,78.5390571 150.321145,78.3898035 150.690575,78.0912918 L151.226842,79.327124 Z M153.121651,70.3897287 L154.837705,70.3897287 L154.837705,79.8823529 L153.121651,79.8823529 L153.121651,70.3897287 Z M153.979678,68.5628463 C153.646,68.5628463 153.368931,68.4553837 153.148465,68.2404553 C152.927998,68.0255269 152.817767,67.7628405 152.817767,67.4523884 C152.817767,67.1419362 152.927998,66.8762648 153.148465,66.6553662 C153.368931,66.4344675 153.646,66.3240198 153.979678,66.3240198 C154.313357,66.3240198 154.590426,66.4284974 154.810892,66.6374555 C155.031358,66.8464137 155.14159,67.106115 155.14159,67.4165672 C155.14159,67.7389598 155.031358,68.0106013 154.810892,68.2315 C154.590426,68.4523986 154.313357,68.5628463 153.979678,68.5628463 Z M162.988961,70.3001756 C164.192589,70.3001756 165.148922,70.6494291 165.857989,71.3479464 C166.567057,72.0464638 166.921585,73.0703435 166.921585,74.4196164 L166.921585,79.8823529 L165.205531,79.8823529 L165.205531,74.6166331 C165.205531,73.6972171 164.985068,73.0046804 164.544135,72.5390021 C164.103203,72.0733239 163.471606,71.8404883 162.649326,71.8404883 C161.719792,71.8404883 160.986901,72.1121298 160.450632,72.6554211 C159.914362,73.1987124 159.646231,73.9778162 159.646231,74.9927559 L159.646231,79.8823529 L157.930178,79.8823529 L157.930178,70.3897287 L159.574729,70.3897287 L159.574729,71.8225776 C159.920325,71.3330185 160.388064,70.9568994 160.977961,70.6942091 C161.567857,70.4315188 162.238184,70.3001756 162.988961,70.3001756 Z M179.041216,70.3897287 L179.041216,78.5927889 C179.041216,80.2525139 178.630082,81.4793785 177.807802,82.2734196 C176.985522,83.0674607 175.758079,83.4644753 174.125436,83.4644753 C173.231654,83.4644753 172.379594,83.3420873 171.569231,83.0973078 C170.758868,82.8525282 170.103438,82.5032747 169.602919,82.049537 L170.425195,80.7241517 C170.866128,81.1062467 171.411327,81.4077389 172.060809,81.6286376 C172.710291,81.8495362 173.380618,81.9599839 174.07181,81.9599839 C175.1801,81.9599839 175.999388,81.6972976 176.529699,81.171917 C177.06001,80.6465364 177.325162,79.8465371 177.325162,78.771895 L177.325162,78.0196493 C176.91998,78.5092085 176.422449,78.8763724 175.832553,79.1211519 C175.242656,79.3659315 174.602121,79.4883195 173.91093,79.4883195 C173.00523,79.4883195 172.185942,79.2942898 171.45304,78.9062246 C170.720138,78.5181594 170.145147,77.9748763 169.728048,77.2763589 C169.31095,76.5778416 169.102404,75.7808273 169.102404,74.8852923 C169.102404,73.9897572 169.31095,73.1927429 169.728048,72.4942256 C170.145147,71.7957082 170.720138,71.2554102 171.45304,70.8733152 C172.185942,70.4912203 173.00523,70.3001756 173.91093,70.3001756 C174.625956,70.3001756 175.290324,70.4315188 175.904055,70.6942091 C176.517785,70.9568994 177.021275,71.3449588 177.41454,71.8583989 L177.41454,70.3897287 L179.041216,70.3897287 Z M174.107561,77.9838281 C174.72725,77.9838281 175.284366,77.8524849 175.778926,77.5897946 C176.273486,77.3271043 176.660785,76.9599405 176.940837,76.488292 C177.220889,76.0166435 177.360913,75.4823156 177.360913,74.8852923 C177.360913,73.9658763 177.057032,73.2225933 176.449259,72.6554211 C175.841487,72.0882489 175.060929,71.804667 174.107561,71.804667 C173.142276,71.804667 172.355759,72.0882489 171.747987,72.6554211 C171.140215,73.2225933 170.836333,73.9658763 170.836333,74.8852923 C170.836333,75.4823156 170.976357,76.0166435 171.256409,76.488292 C171.536461,76.9599405 171.923761,77.3271043 172.41832,77.5897946 C172.91288,77.8524849 173.475954,77.9838281 174.107561,77.9838281 Z" id="Consulting" fill="#009FC1"></path>
                    <g id="Group">
                        <path d="M72.2733699,50.1180235 L82.7856986,27.6826118 L86.4128219,28.3669647 L72.3785753,58.2281412 L72.2207671,58.2281412 L58.1865205,28.3669647 L61.4454247,27.6826118 L72.2733699,50.1180235 Z M90.7562466,58.2285529 L90.7562466,28.3673765 L94.1203562,27.6822 L94.1203562,57.5442 L90.7562466,58.2285529 Z M129.09337,42.9555412 C129.09337,50.8029529 122.785973,58.2287176 114.165699,58.2287176 C105.598027,58.2287176 99.2380274,50.8029529 99.2380274,42.9555412 C99.2380274,35.1081294 105.545425,27.6823647 114.165699,27.6823647 C122.785973,27.6823647 129.09337,35.1081294 129.09337,42.9555412 Z M102.65474,42.9555412 C102.65474,49.1698941 107.64789,54.8580118 114.218301,54.8580118 C120.788712,54.8580118 125.781863,49.1698941 125.781863,42.9555412 C125.781863,36.7411882 120.788712,31.0530706 114.218301,31.0530706 C107.64789,31.0530706 102.65474,36.7411882 102.65474,42.9555412 Z M136.820055,27.6825294 L136.820055,47.0634706 C136.820055,52.2772353 138.922521,55.279 143.915671,55.279 C149.382247,55.279 152.851562,53.2778235 152.851562,41.5334706 L152.851562,28.3668824 L156.215671,27.6825294 L156.215671,57.5964118 L152.851562,58.0707647 L152.851562,53.2251176 L152.746356,53.2251176 C151.589918,55.8587647 148.120603,58.2815882 143.653479,58.2815882 C136.294027,58.2815882 133.508548,54.0675882 133.508548,47.4851176 L133.508548,28.3668824 L136.820055,27.6825294 Z M162.891041,51.6980471 C165.098712,53.8046353 167.04337,54.9106353 170.197068,54.9106353 C173.613781,54.9106353 176.451863,53.1202824 176.451863,49.4860471 C176.451863,42.1656941 161.051589,46.4315765 161.051589,36.1613412 C161.051589,30.7894588 165.676521,27.6822824 170.670493,27.6822824 C174.191589,27.6822824 176.609671,29.1572235 179.395973,31.1056941 L177.503096,33.7920471 C175.453233,32.2644 173.192959,31.0529882 170.565288,31.0529882 C167.253781,31.0529882 164.468301,32.6860471 164.468301,36.0040471 C164.468301,43.3244 179.868575,38.4787529 179.868575,49.3279294 C179.868575,55.4376941 175.190219,58.2813412 169.461452,58.2813412 C165.886932,58.2813412 162.628027,56.5428706 160.367753,53.8573412 L162.891041,51.6980471 Z" id="Combined-Shape" fill="#383C3D"></path>
                        <path d="M26.4914795,25.6654312 C23.8154479,29.0642315 19.7306184,31.3693059 14.9278356,31.3693059 C6.30756164,31.4220118 0.000164383562,23.9435412 0.000164383562,16.0961294 C0.000164383562,8.24871765 6.30756164,0.822952941 14.9278356,0.822952941 C23.2662362,0.822952941 29.5135392,7.85660876 29.8419233,15.46718 L29.855589,15.4644 L29.855589,33.8966353 C33.3249041,29.9996941 37.3194247,27.6822824 42.4703836,27.6822824 C50.4602466,27.6822824 57.0824384,33.4231059 57.0824384,42.6392235 C57.0824384,51.1182824 50.5128493,58.2813412 41.9451781,58.2813412 C32.1684658,58.2813412 26.4914795,51.9615765 26.4914795,42.3238118 L26.4914795,25.6654312 Z M3.36427397,16.0961294 C3.36427397,22.3104824 8.35742466,27.9986 14.9278356,27.9986 C21.4982466,27.9986 26.4913973,22.3104824 26.4913973,16.0961294 C26.4913973,9.88177647 21.4982466,4.19365882 14.9278356,4.19365882 C8.35742466,4.19365882 3.36427397,9.88177647 3.36427397,16.0961294 Z M41.9977808,54.8579294 C48.8303836,54.8579294 53.5087397,49.8022824 53.7191507,43.0608706 C53.7191507,36.0559294 48.7777808,31.0002824 41.8399726,31.0002824 C35.1643562,31.0002824 29.9081918,36.0559294 29.9081918,43.2189882 C29.855589,50.1176941 35.4273699,54.8579294 41.9977808,54.8579294 Z M57.1353699,10.0586706 L57.1353699,19.5004353 L54.1920822,18.6769059 L54.1920822,10.8822 L57.1353699,10.0586706 Z" id="Combined-Shape" fill="#009FC1"></path>
                    </g>
                </g>
            </g>
        </g>
    </g>
</svg>